<svg width="143" height="140" viewBox="0 0 143 140" fill="none" xmlns="http://www.w3.org/2000/svg">
<path opacity="0.4" d="M71.3953 140C110.543 140 142.278 138.147 142.278 135.862C142.278 133.576 110.543 131.723 71.3953 131.723C32.248 131.723 0.512756 133.576 0.512756 135.862C0.512756 138.147 32.248 140 71.3953 140Z" fill="#8A1114"/>
<path d="M50.6997 27.434C47.8518 29.7811 45.0698 33.5648 46.7003 37.6703C48.3308 41.7758 58.7644 42.1889 60.9579 40.4999C63.8095 38.3064 61.2906 28.5381 59.0679 28.4796C58.8997 24.8567 53.0797 25.4709 50.6997 27.434Z" fill="#263238"/>
<path d="M46.7112 66.9717C46.7112 66.9717 47.8555 87.7879 49.1168 99.0587C49.2447 109.642 51.6758 133.551 51.6758 133.551H54.3482C54.7979 121.688 58.0991 110.611 55.9056 100.148C61.0237 79.6025 57.5178 66.9863 57.5178 66.9863L46.7112 66.9717Z" fill="#FFB573"/>
<path d="M49.6213 66.9863C49.6213 66.9863 55.1233 90.0764 56.6295 99.9106C58.2161 110.242 60.5777 130.29 60.4681 133.544H62.7749C62.7749 133.544 66.6501 113.262 63.0637 100.276C66.0213 71.0297 58.7242 67.0083 58.7242 67.0083L49.6213 66.9863Z" fill="#FFB573"/>
<path d="M36.4274 40.2805C36.2556 39.0339 33.9671 38.9279 33.9671 38.9279L32.8703 38.3759C32.6778 38.258 32.447 38.2195 32.2267 38.2686C32.0063 38.3178 31.8137 38.4506 31.6895 38.6391L31.3239 39.2459C31.2174 39.4848 31.1998 39.7538 31.2742 40.0045C31.3486 40.2552 31.5102 40.4711 31.7297 40.6132L32.0624 40.8545C32.6284 41.259 33.298 41.4936 33.9927 41.5308L35.0053 41.5857C35.2277 41.5985 35.4506 41.5712 35.6634 41.5052C35.9153 41.426 36.1302 41.2585 36.2686 41.0335C36.4069 40.8085 36.4594 40.5411 36.4165 40.2805H36.4274Z" fill="#FFB573"/>
<path d="M48.4806 47.5738C48.3417 47.7164 48.2686 47.7859 48.1662 47.8773L47.8774 48.1332C47.6873 48.294 47.4899 48.4439 47.2961 48.5938C46.9013 48.8863 46.4992 49.1568 46.0861 49.4127C45.2571 49.9116 44.3861 50.3373 43.4831 50.6849C41.6847 51.3845 39.7754 51.756 37.8459 51.7817H37.6777C37.5896 51.7798 37.5017 51.7725 37.4145 51.7597C37.2428 51.7346 37.0746 51.6892 36.9136 51.6245C36.6426 51.5127 36.3946 51.3516 36.1825 51.1492C35.9077 50.8793 35.6836 50.5623 35.5208 50.2133C35.2927 49.719 35.1222 49.2001 35.0126 48.6669C34.8188 47.7492 34.6965 46.8178 34.647 45.8812C34.548 44.0872 34.5847 42.2883 34.7567 40.4998C34.7771 40.2999 34.8702 40.1145 35.0184 39.9788C35.1666 39.8432 35.3595 39.7667 35.5604 39.764C35.7613 39.7613 35.9561 39.8325 36.1079 39.9642C36.2597 40.0958 36.3578 40.2786 36.3835 40.4779V40.4998C36.581 42.2034 36.8076 43.9326 37.1147 45.5887C37.2501 46.3908 37.4369 47.1833 37.674 47.9613C37.7685 48.2796 37.8985 48.5862 38.0616 48.8753C38.1274 48.9813 38.1932 49.0325 38.1639 48.9959C38.1155 48.9436 38.0554 48.9035 37.9884 48.8789C37.9292 48.852 37.8664 48.8336 37.802 48.8241H37.7033C38.4892 48.7523 39.2688 48.6228 40.0357 48.4366C40.7957 48.2468 41.5409 48.0024 42.2657 47.7054C42.9875 47.3965 43.6832 47.0297 44.3459 46.6087C44.6786 46.404 45.0003 46.1883 45.311 45.958C45.4646 45.8446 45.6108 45.7276 45.757 45.6106L45.9691 45.4352L46.1299 45.2926L46.225 45.2085C46.5438 44.923 46.9615 44.7732 47.3892 44.7912C47.8168 44.8092 48.2204 44.9936 48.5141 45.3049C48.8078 45.6162 48.9683 46.0299 48.9614 46.4579C48.9544 46.8858 48.7806 47.2941 48.477 47.5958L48.4806 47.5738Z" fill="#FFB573"/>
<path d="M50.2793 43.5159C47.3876 43.0333 44.3533 45.0002 42.7813 46.6014C41.9697 49.0435 44.569 52.012 44.569 52.012C44.569 52.012 48.2723 49.7381 49.6067 48.1844C50.941 46.6307 51.9464 43.7937 50.2793 43.5159Z" fill="#E0E0E0"/>
<path d="M59.236 66.7083C59.236 66.7083 63.3159 69.6037 64.0836 79.2295C64.3907 83.0206 64.9427 98.1447 66.1053 104.652C61.9194 107.642 49.3873 107.233 47.4241 105.486C47.9798 92.3246 42.9494 74.8681 46.5979 66.84C52.6373 66.0978 59.236 66.7083 59.236 66.7083Z" fill="#263238"/>
<path opacity="0.2" d="M55.0977 94.3133C55.1525 88.7821 54.3373 81.1707 51.8623 76.6594C52.7068 82.2894 55.0977 94.3133 55.0977 94.3133Z" fill="black"/>
<path d="M44.6823 47.976C44.6823 51.109 42.1853 52.7541 45.0113 55.167C45.1795 57.8723 45.3769 62.7162 46.2067 67.1288C47.0659 68.3243 53.3465 68.2255 59.8722 66.8107C59.0204 63.027 59.3348 56.8633 61.5685 48.433C61.6874 47.9651 61.7085 47.4777 61.6304 47.0014C61.5523 46.525 61.3766 46.0699 61.1144 45.6646C60.8522 45.2592 60.5091 44.9124 60.1066 44.6459C59.7041 44.3793 59.2509 44.1987 58.7754 44.1155C58.238 44.0204 57.6787 43.9327 57.0864 43.8596C55.0455 43.5587 52.9857 43.4047 50.9227 43.3989C50.2574 43.3989 49.5664 43.4428 48.9084 43.4867C47.7652 43.5573 46.6918 44.0609 45.9067 44.8949C45.1217 45.7288 44.6838 46.8306 44.6823 47.976Z" fill="#E0E0E0"/>
<path d="M58.0136 53.4156L50.3548 55.15C50.0634 55.216 49.8807 55.5058 49.9467 55.7972L52.4263 66.747C52.4923 67.0384 52.7821 67.2212 53.0735 67.1552L60.7323 65.4208C61.0237 65.3548 61.2065 65.065 61.1405 64.7736L58.6608 53.8238C58.5948 53.5324 58.305 53.3496 58.0136 53.4156Z" fill="#8A1114"/>
<path d="M51.6795 47.4385C51.6795 47.4385 50.4402 48.9227 49.4165 49.2664L49.2996 49.9975C50.5939 49.8322 51.7887 49.2161 52.6739 48.2574L51.6795 47.4385Z" fill="#8A1114"/>
<path d="M48.3125 46.5429C48.3125 46.5429 48.2613 48.4732 48.795 49.4164L48.3965 50.0452C47.5347 49.0644 47.0455 47.8116 47.0146 46.5063L48.3125 46.5429Z" fill="#8A1114"/>
<path d="M56.8342 36.9062C56.3443 38.8511 55.7703 42.4375 57.0864 43.8523C57.0864 43.8523 52.184 45.1903 48.9888 49.5773C47.5265 44.9673 50.9373 43.3917 50.9373 43.3917C53.1711 43.0261 53.2003 41.3956 52.8932 39.8309L56.8342 36.9062Z" fill="#FFB573"/>
<path opacity="0.2" d="M55.2293 38.1016L52.8969 39.8381C52.9722 40.1992 53.0163 40.5661 53.0285 40.9348C53.8766 40.8763 55.083 40.0391 55.2219 39.1654C55.286 38.8139 55.2885 38.4539 55.2293 38.1016V38.1016Z" fill="black"/>
<path d="M59.1081 33.4405C58.1686 36.5918 57.8395 37.9481 55.8617 39.1874C52.8859 41.0483 49.2813 39.1326 49.2593 35.7473C49.2593 32.6984 50.7838 28.0701 54.1728 27.5656C57.5617 27.0611 60.0623 30.2855 59.1081 33.4405Z" fill="#FFB573"/>
<path d="M56.6514 28.8379C55.763 31.8759 56.5234 35.0528 58.3367 35.4184C60.8556 34.4788 60.7313 31.6821 60.0878 30.4026C59.4444 29.1231 57.1632 27.0868 56.6514 28.8379Z" fill="#263238"/>
<path d="M58.0297 34.2959C56.6295 34.7602 56.3589 35.6997 56.3589 35.6997C56.3589 35.6997 57.3204 35.0197 58.2417 35.1477C58.108 34.8833 58.0355 34.5921 58.0297 34.2959Z" fill="#263238"/>
<path d="M54.531 33.1443C54.4689 33.4039 54.2824 33.5794 54.1106 33.5392C53.9388 33.499 53.8474 33.2467 53.9095 32.9871C53.9717 32.7276 54.1581 32.5484 54.33 32.5923C54.5018 32.6362 54.5785 32.8848 54.531 33.1443Z" fill="#263238"/>
<path d="M51.2883 32.3731C51.2261 32.6326 51.0397 32.8081 50.8679 32.7642C50.696 32.7204 50.6047 32.4754 50.6668 32.2122C50.7289 31.949 50.9154 31.7772 51.0872 31.821C51.259 31.8649 51.3541 32.1099 51.2883 32.3731Z" fill="#263238"/>
<path d="M51.1677 31.8539L50.5791 31.5139C50.5791 31.5139 50.7875 32.0842 51.1677 31.8539Z" fill="#263238"/>
<path d="M51.9025 32.7971C51.5309 33.3324 51.0853 33.8125 50.5791 34.2229C50.6903 34.3517 50.8277 34.4552 50.9822 34.5264C51.1367 34.5977 51.3046 34.6351 51.4748 34.636L51.9025 32.7971Z" fill="#ED893E"/>
<path d="M59.1264 36.6028C58.9328 36.8301 58.6925 37.013 58.4219 37.1392C58.1512 37.2653 57.8566 37.3318 57.5581 37.3339C56.794 37.312 56.6624 36.4346 57.0828 35.7144C57.4484 35.0637 58.3111 34.2923 58.9765 34.6615C59.6419 35.0308 59.6455 36.0105 59.1264 36.6028Z" fill="#FFB573"/>
<path d="M55.1415 32.0257C55.1021 32.0062 55.072 31.9721 55.0574 31.9307C54.9988 31.7395 54.8971 31.5643 54.7602 31.4186C54.6233 31.2728 54.4549 31.1603 54.2678 31.0898C54.2274 31.0787 54.1929 31.0522 54.1717 31.016C54.1506 30.9798 54.1444 30.9368 54.1544 30.8961C54.1591 30.876 54.1678 30.8571 54.18 30.8405C54.1923 30.824 54.2078 30.8101 54.2256 30.7998C54.2435 30.7896 54.2632 30.783 54.2837 30.7807C54.3041 30.7784 54.3249 30.7804 54.3445 30.7864C54.5838 30.8697 54.8001 31.008 54.976 31.1903C55.1519 31.3725 55.2825 31.5936 55.3572 31.8356C55.3646 31.855 55.3679 31.8757 55.3668 31.8964C55.3658 31.9172 55.3605 31.9374 55.3512 31.956C55.3419 31.9746 55.3289 31.991 55.3129 32.0042C55.297 32.0175 55.2784 32.0273 55.2585 32.033C55.22 32.0454 55.1782 32.0428 55.1415 32.0257V32.0257Z" fill="#263238"/>
<path d="M50.1111 30.8156C50.0696 30.817 50.0291 30.8027 49.9978 30.7754C49.969 30.7455 49.9529 30.7055 49.9529 30.6639C49.9529 30.6224 49.969 30.5824 49.9978 30.5524C50.1608 30.364 50.3669 30.2177 50.5986 30.126C50.8303 30.0344 51.0807 30 51.3285 30.026C51.3703 30.0332 51.4076 30.0562 51.4328 30.0902C51.458 30.1243 51.4691 30.1668 51.4638 30.2088C51.4575 30.25 51.4351 30.287 51.4015 30.3117C51.3679 30.3364 51.3259 30.3467 51.2846 30.3404C51.0885 30.3208 50.8905 30.3492 50.7078 30.4231C50.525 30.497 50.3629 30.6141 50.2354 30.7645C50.2196 30.7815 50.2003 30.7948 50.1789 30.8037C50.1574 30.8125 50.1343 30.8166 50.1111 30.8156V30.8156Z" fill="#263238"/>
<path d="M54.403 32.6288L53.8145 32.2852C53.8145 32.2852 54.0228 32.8591 54.403 32.6288Z" fill="#263238"/>
<path d="M54.213 58.5852L51.2883 58.0186L51.6174 61.3782C51.6174 61.3782 53.8108 61.2832 55.0611 60.2815L55.1781 59.8428C55.0428 59.1153 54.8783 58.8484 54.213 58.5852Z" fill="#FFB573"/>
<path d="M49.5299 59.4516L49.8698 60.8737C49.9196 61.078 50.044 61.2562 50.2185 61.3733C50.3931 61.4903 50.6052 61.5378 50.813 61.5062L51.6319 61.3782L51.3029 58.0186L50.0563 58.4719C49.8638 58.5424 49.7039 58.6811 49.6069 58.8617C49.5098 59.0423 49.4824 59.2522 49.5299 59.4516V59.4516Z" fill="#FFB573"/>
<path d="M60.7532 46.5722C61.6418 48.2741 62.4173 50.0327 63.0746 51.8366C63.4037 52.7395 63.7144 53.6645 63.963 54.6113C64.2341 55.5924 64.4176 56.5956 64.5114 57.6091C64.5333 57.876 64.5443 58.1501 64.5479 58.428V58.5267V58.6839C64.5391 58.7916 64.5195 58.8982 64.4894 59.002C64.4357 59.2035 64.3519 59.3957 64.2408 59.5723C64.0715 59.835 63.85 60.0602 63.5901 60.234C63.2723 60.4454 62.9214 60.6024 62.5519 60.6982C62.2719 60.7756 61.9874 60.8354 61.7001 60.8774C60.7036 61.0027 59.6981 61.0406 58.695 60.9907C56.7933 60.903 54.9006 60.6757 53.0321 60.3107C52.8297 60.2772 52.6474 60.1686 52.5215 60.0066C52.3957 59.8447 52.3355 59.6412 52.353 59.4368C52.3706 59.2324 52.4645 59.0421 52.6161 58.9039C52.7678 58.7657 52.9659 58.6898 53.171 58.6912V58.6912C54.999 58.6583 56.8488 58.6108 58.6292 58.4755C59.4815 58.4164 60.3284 58.2942 61.1627 58.1099C61.333 58.0705 61.5004 58.0192 61.6635 57.9564C61.7443 57.934 61.8192 57.8941 61.8829 57.8394C61.8127 57.8809 61.7547 57.9402 61.7147 58.0112C61.6661 58.0882 61.6291 58.172 61.605 58.2598C61.5921 58.3091 61.5823 58.3592 61.5758 58.4097C61.5738 58.434 61.5738 58.4585 61.5758 58.4828V58.4828C61.5758 58.2964 61.5429 58.1172 61.5136 57.9125C61.1939 56.2182 60.6951 54.5625 60.0257 52.9735C59.364 51.3247 58.6072 49.6467 57.8322 48.0638V48.0345C57.6751 47.652 57.6678 47.2242 57.8119 46.8366C57.9559 46.4489 58.2407 46.1297 58.6095 45.9425C58.9783 45.7553 59.404 45.714 59.802 45.8266C60.1999 45.9392 60.5408 46.1976 60.7569 46.5503L60.7532 46.5722Z" fill="#FFB573"/>
<path d="M58.9655 44.2288C61.0603 44.6163 61.9925 46.4991 63.5133 50.2572C63.049 52.7871 59.3311 54.1178 59.3311 54.1178C59.3311 54.1178 57.1961 50.334 56.772 48.327C56.3479 46.3199 56.8524 43.8376 58.9655 44.2288Z" fill="#E0E0E0"/>
<path d="M54.5384 133.58C54.5212 133.532 54.488 133.49 54.4441 133.463C54.4002 133.436 54.3484 133.424 54.2971 133.431L51.8184 133.394C51.5648 133.377 51.3115 133.432 51.0873 133.551C49.9526 134.26 48.6781 134.715 47.351 134.886C46.8246 134.966 47.0622 135.854 48.3052 135.869C50.3561 135.891 50.729 135.737 52.4801 135.756C53.9754 135.774 53.2625 135.84 54.4506 135.869C54.7358 135.869 54.9697 135.69 54.9332 135.503L54.5384 133.58Z" fill="#263238"/>
<path d="M63.0893 133.58C63.0716 133.532 63.0382 133.491 62.9945 133.464C62.9508 133.437 62.8992 133.425 62.848 133.431L60.8263 133.394C60.5726 133.376 60.319 133.43 60.0952 133.551C59.364 134.059 59.4664 134.648 57.7993 134.886C57.2729 134.966 57.5325 135.854 58.7754 135.869C60.8263 135.891 60.702 135.756 61.5356 135.756C62.3691 135.756 61.8573 135.84 63.0491 135.869C63.3342 135.869 63.5645 135.69 63.5207 135.503L63.0893 133.58Z" fill="#263238"/>
<path d="M50.3305 48.0016C51.3688 48.0454 53.2734 48.8973 53.884 49.8075C54.7467 48.9119 58.1174 46.8317 58.1759 44.0131C57.7633 43.6164 57.2434 43.3495 56.6806 43.2454C56.6806 43.2454 52.184 45.4206 50.3305 48.0016Z" fill="#FAFAFA"/>
<path d="M48.6488 47.8555C48.6488 47.8555 48.3673 45.5779 51.1238 43.3661C50.8459 43.1395 49.7565 43.3954 49.7565 43.3954C49.7565 43.3954 46.5357 44.7809 46.6308 48.3673C47.2112 47.9405 47.9352 47.7569 48.6488 47.8555V47.8555Z" fill="#FAFAFA"/>
<path d="M48.2394 48.8204C47.8409 49.0069 47.6837 50.3047 48.2394 50.6081C48.795 50.9115 48.7402 49.6722 49.0619 49.2481C49.3836 48.8241 48.9376 48.495 48.2394 48.8204Z" fill="#8A1114"/>
<path d="M48.7292 49.325C48.4441 49.6906 48.8133 50.9336 49.4275 50.9299C50.0417 50.9262 49.5116 49.8332 49.6322 49.2921C49.7528 48.751 49.2154 48.6816 48.7292 49.325Z" fill="#8A1114"/>
<path d="M48.8133 50.2499C48.1297 49.1934 48.0821 54.7612 49.7382 56.9547C49.6285 54.7941 50.7874 51.7305 48.8133 50.2499Z" fill="#8A1114"/>
<path d="M48.7512 50.2023C48.4477 49.1275 46.9233 53.8362 47.7678 56.1357C48.2467 54.2749 50.0344 51.979 48.7512 50.2023Z" fill="#8A1114"/>
<path d="M53.8474 35.6413C54.0067 35.5719 54.1596 35.4887 54.3044 35.3927C54.3125 35.3845 54.319 35.3748 54.3235 35.3642C54.3279 35.3535 54.3302 35.3421 54.3302 35.3305C54.3302 35.319 54.3279 35.3075 54.3235 35.2969C54.319 35.2862 54.3125 35.2765 54.3044 35.2684C54.2891 35.2489 54.2672 35.2359 54.2428 35.2318C54.2185 35.2278 54.1935 35.233 54.1728 35.2464C53.8467 35.4651 53.4758 35.6078 53.0874 35.6641C52.6989 35.7204 52.3028 35.6889 51.9281 35.5718C51.917 35.567 51.9052 35.5644 51.8931 35.5641C51.8811 35.5639 51.8691 35.5661 51.8579 35.5705C51.8467 35.5749 51.8364 35.5815 51.8278 35.5899C51.8191 35.5983 51.8122 35.6083 51.8074 35.6193C51.7992 35.6421 51.8004 35.6672 51.8106 35.6892C51.8209 35.7111 51.8395 35.7281 51.8623 35.7363C52.5131 35.9505 53.22 35.9166 53.8474 35.6413V35.6413Z" fill="#263238"/>
<path d="M43.2382 38.2185H24.5607V38.8254H43.2382V38.2185Z" fill="#8A1114"/>
<path d="M42.7922 38.8254H25.0067L25.789 39.2495H42.0098L42.7922 38.8254Z" fill="#8A1114"/>
<path opacity="0.2" d="M42.7922 38.8254H25.0067L25.789 39.2495H42.0098L42.7922 38.8254Z" fill="black"/>
<path d="M30.5452 21.9613C30.436 21.9603 30.3315 21.9165 30.2542 21.8392C30.1769 21.762 30.1331 21.6574 30.1321 21.5482V20.1626C30.1331 20.0534 30.1769 19.9488 30.2542 19.8716C30.3315 19.7943 30.436 19.7505 30.5452 19.7495V19.7495C30.6545 19.7505 30.759 19.7943 30.8363 19.8716C30.9136 19.9488 30.9574 20.0534 30.9584 20.1626V21.5482C30.9574 21.6574 30.9136 21.762 30.8363 21.8392C30.759 21.9165 30.6545 21.9603 30.5452 21.9613V21.9613Z" fill="#263238"/>
<path d="M31.2106 20.0785V19.8957C31.2106 19.718 31.0665 19.574 30.8889 19.574H30.2016C30.0239 19.574 29.8799 19.718 29.8799 19.8957V20.0785C29.8799 20.2561 30.0239 20.4002 30.2016 20.4002H30.8889C31.0665 20.4002 31.2106 20.2561 31.2106 20.0785Z" fill="#263238"/>
<path d="M31.207 24.97V21.018C31.207 20.975 31.1901 20.9337 31.1601 20.903C31.13 20.8722 31.0891 20.8545 31.0461 20.8535H30.0444C30.0014 20.8545 29.9605 20.8722 29.9304 20.903C29.9004 20.9337 29.8835 20.975 29.8836 21.018V24.97C29.8837 25.267 29.8209 25.5606 29.6992 25.8316C29.5776 26.1025 29.4 26.3446 29.178 26.542C28.9568 26.7407 28.7797 26.9836 28.6582 27.255C28.5367 27.5264 28.4734 27.8203 28.4724 28.1176V38.2552H32.6144V28.1176C32.6142 27.8201 32.5512 27.5261 32.4296 27.2546C32.308 26.9831 32.1306 26.7403 31.9089 26.542V26.542C31.6879 26.344 31.5112 26.1017 31.3902 25.8308C31.2693 25.5599 31.2068 25.2666 31.207 24.97V24.97Z" fill="#8A1114"/>
<path d="M32.6144 29.3167H29.8799V35.8715H32.6144V29.3167Z" fill="#E0E0E0"/>
<path d="M36.4969 38.2185H36.0034C36.1677 38.2296 36.3326 38.2296 36.4969 38.2185Z" fill="#8A1114"/>
<path d="M39.4764 38.2185H38.9792C39.1447 38.2295 39.3108 38.2295 39.4764 38.2185Z" fill="#8A1114"/>
<path opacity="0.2" d="M35.8352 30.4866V32.15C35.8352 33.4734 36.5883 34.5738 37.5425 34.709V37.6337C37.5425 38.0834 37.1038 38.2113 36.7638 38.2406H38.7123C38.3723 38.2113 37.9336 38.0834 37.9336 37.6337V34.709C38.8878 34.5774 39.6409 33.477 39.6409 32.15V30.4866H35.8352Z" fill="#8A1114"/>
<path d="M58.4866 28.922C57.0243 29.5435 52.1255 29.7336 50.2062 29.3168C52.1913 26.5128 56.6514 25.6903 58.4866 28.922Z" fill="#263238"/>
<path d="M63.0966 38.9388C63.0825 38.9386 63.0686 38.9352 63.0559 38.9288C63.0433 38.9225 63.0322 38.9134 63.0235 38.9023C62.976 38.8365 61.8975 37.2499 61.8756 33.0018C61.8756 31.2287 61.3308 29.803 60.4132 29.0828C60.1748 28.8858 59.8935 28.7474 59.5919 28.6789C59.2903 28.6103 58.9769 28.6134 58.6767 28.688C58.665 28.6906 58.6528 28.6909 58.6409 28.6888C58.629 28.6868 58.6177 28.6824 58.6075 28.6759C58.5973 28.6695 58.5885 28.6611 58.5816 28.6512C58.5746 28.6414 58.5697 28.6303 58.567 28.6185C58.5644 28.6067 58.5641 28.5946 58.5662 28.5827C58.5682 28.5708 58.5726 28.5595 58.5791 28.5493C58.5855 28.5391 58.5939 28.5303 58.6038 28.5233C58.6136 28.5164 58.6247 28.5115 58.6365 28.5088C58.9627 28.4312 59.3024 28.4294 59.6294 28.5035C59.9564 28.5777 60.2621 28.7258 60.5229 28.9365C61.4917 29.6933 62.051 31.1739 62.062 32.9982C62.0839 37.1804 63.1587 38.7816 63.1587 38.7963C63.1658 38.8061 63.1708 38.8172 63.1735 38.829C63.1761 38.8407 63.1765 38.8529 63.1744 38.8648C63.1724 38.8767 63.168 38.8881 63.1616 38.8983C63.1551 38.9085 63.1467 38.9173 63.1368 38.9242C63.1246 38.9319 63.1109 38.9369 63.0966 38.9388Z" fill="#263238"/>
<path d="M89.4038 17.417C90.4238 18.8135 90.4202 20.9887 90.0729 22.1695C88.2449 21.3397 88.5301 18.9561 88.5301 18.9561L89.4038 17.417Z" fill="#263238"/>
<path d="M94.8693 34.7015L95.9222 35.8604L97.0189 37.0376C97.7501 37.8163 98.4812 38.5767 99.2343 39.3079C99.5999 39.6735 99.9655 40.039 100.357 40.3607C100.748 40.6825 101.088 41.0261 101.472 41.3222C101.856 41.6183 102.203 41.8816 102.543 42.1082C102.799 42.2799 103.068 42.4315 103.347 42.5615L102.788 42.4738C102.622 42.4538 102.454 42.4912 102.313 42.5798C102.313 42.5798 102.4 42.5798 102.525 42.5067C102.864 42.2988 103.179 42.0535 103.464 41.7755C104.213 41.0643 104.913 40.3033 105.559 39.498C106.257 38.6608 106.937 37.7688 107.613 36.8658C108.29 35.9628 108.966 35.0379 109.631 34.1276L109.664 34.0874C109.897 33.7799 110.231 33.5639 110.607 33.477C110.983 33.39 111.377 33.4377 111.722 33.6116C112.066 33.7856 112.339 34.0748 112.492 34.4289C112.645 34.783 112.669 35.1796 112.56 35.5497C112.19 36.7051 111.761 37.8411 111.277 38.9533C110.798 40.05 110.268 41.1467 109.668 42.2435C109.046 43.3842 108.327 44.4691 107.518 45.4862C107.036 46.0875 106.492 46.6364 105.895 47.124C105.5 47.4439 105.066 47.714 104.605 47.9283C103.927 48.2442 103.184 48.3969 102.437 48.3743C102.299 48.3691 102.162 48.3507 102.027 48.3194L101.874 48.2865C101.073 48.0946 100.298 47.8061 99.567 47.4274C98.9545 47.1154 98.3623 46.7649 97.7939 46.3782C96.7516 45.6766 95.7574 44.906 94.8181 44.0714C93.8969 43.2708 93.0414 42.4336 92.2115 41.5818C91.8021 41.1504 91.3926 40.719 91.0014 40.273C90.6103 39.827 90.2337 39.392 89.8206 38.8838C89.3595 38.2142 89.1627 37.3976 89.268 36.5915C89.3734 35.7853 89.7734 35.0467 90.3911 34.5181C91.0087 33.9895 91.8002 33.7082 92.613 33.7286C93.4257 33.749 94.2021 34.0695 94.7925 34.6284L94.8693 34.7015Z" fill="#E0E0E0"/>
<path d="M111.269 36.1018L114.527 36.259L113.47 31.8721C113.47 31.8721 110.439 32.0951 109.953 33.6525C109.902 33.8261 109.913 34.0119 109.982 34.1789L110.582 35.6156C110.639 35.7535 110.733 35.8724 110.855 35.9585C110.977 36.0446 111.12 36.0943 111.269 36.1018V36.1018Z" fill="#FF8B7B"/>
<path d="M117.433 33.6561L116.804 32.1937C116.682 31.9103 116.463 31.6792 116.187 31.5414C115.91 31.4036 115.594 31.3679 115.294 31.4406L113.466 31.8903L114.523 36.2773L116.716 35.3926C116.879 35.3282 117.028 35.2316 117.153 35.1085C117.278 34.9855 117.377 34.8386 117.443 34.6765C117.51 34.5144 117.544 34.3405 117.542 34.1652C117.54 33.9899 117.503 33.8167 117.433 33.6561V33.6561Z" fill="#FF8B7B"/>
<path d="M87.1665 96.8542C83.7081 81.6423 81.5694 63.3011 81.5694 63.3011L95.7503 63.0745C95.7503 63.0745 95.5529 87.7914 95.5821 98.1447C95.6187 108.911 96.3645 132.604 96.3645 132.604H92.0616C92.0616 132.604 86.5084 110.161 87.1665 96.8542Z" fill="#263238"/>
<path d="M86.0624 75.866L83.8177 79.1928C84.4868 83.3458 85.2801 87.9192 86.205 92.4012C86.5925 85.5136 86.5267 77.5111 86.0624 75.866Z" fill="black"/>
<path d="M102.104 134.714C102.104 134.714 96.1781 133.317 95.7321 132.378H92.4418L92.4638 135.862H94.4964L94.8071 135.54L95.3226 135.862C96.9677 135.862 101.34 135.796 102.375 135.427C102.395 135.294 102.381 135.159 102.334 135.034C102.286 134.909 102.207 134.799 102.104 134.714V134.714Z" fill="#263238"/>
<path d="M73.9763 96.4264C75.6178 81.1268 75.5666 70.9051 77.5663 63.3669L90.4787 63.1731C90.4787 63.1731 85.101 87.4404 82.604 97.5377C80.1071 107.635 75.8335 132.597 75.8335 132.597H71.8486C71.8486 132.597 70.5947 108.257 73.9763 96.4264Z" fill="#263238"/>
<path d="M76.5427 66.3462C76.2575 68.1741 75.2412 78.988 74.1884 82.9253C82.7978 86.7456 95.9587 85.2431 96.3645 82.7644C96.2439 78.1727 95.9989 66.3462 95.9989 66.3462H76.5427Z" fill="#E0E0E0"/>
<path opacity="0.1" d="M77.0216 68.3533C77.6228 69.3275 78.3491 70.2186 79.1822 71.0037C79.1822 71.0037 77.325 70.6711 77.0216 68.3533Z" fill="black"/>
<path opacity="0.1" d="M94.3282 70.9014C94.8219 70.1654 95.2222 69.3709 95.52 68.5361C95.52 68.5361 95.6041 70.4043 94.3282 70.9014Z" fill="black"/>
<path opacity="0.1" d="M77.102 69.7314C77.3005 70.4637 77.5943 71.1667 77.9757 71.8226C77.6278 71.6111 77.3558 71.2948 77.1989 70.9191C77.0419 70.5434 77.008 70.1276 77.102 69.7314V69.7314Z" fill="black"/>
<path d="M79.5478 134.714C79.5478 134.714 75.8518 133.317 75.4277 132.378H72.1375L72.0717 135.862H74.766L75.084 135.54L75.5922 135.862C77.2373 135.862 78.7545 135.796 79.8 135.427C79.825 135.296 79.8147 135.161 79.7704 135.036C79.7261 134.911 79.6493 134.799 79.5478 134.714V134.714Z" fill="#263238"/>
<path d="M77.0911 32.8444C81.6535 32.2777 88.1682 32.3326 92.5369 33.0857C93.6284 33.2836 94.6301 33.8196 95.4003 34.6181C96.1706 35.4165 96.6703 36.4368 96.8288 37.5348C97.7464 44.1335 96.9567 55.664 96.3718 67.2712C86.3914 70.6857 75.8627 67.2236 75.8627 67.2236C75.4971 64.8839 76.316 57.2104 76.8644 53.1159C76.0418 48.8861 74.3053 44.0421 73.1428 38.4231C73.0017 37.7946 72.9941 37.1434 73.1205 36.5117C73.2469 35.88 73.5046 35.2819 73.8767 34.756C74.2489 34.2302 74.7273 33.7883 75.281 33.459C75.8347 33.1297 76.4513 32.9203 77.0911 32.8444V32.8444Z" fill="#263238"/>
<path opacity="0.1" d="M77.0911 32.8444C81.6535 32.2777 88.1682 32.3326 92.5369 33.0857C93.6284 33.2836 94.6301 33.8196 95.4003 34.6181C96.1706 35.4165 96.6703 36.4368 96.8288 37.5348C97.7464 44.1335 96.9567 55.664 96.3718 67.2712C86.3914 70.6857 75.8627 67.2236 75.8627 67.2236C75.4971 64.8839 76.316 57.2104 76.8644 53.1159C76.0418 48.8861 74.3053 44.0421 73.1428 38.4231C73.0017 37.7946 72.9941 37.1434 73.1205 36.5117C73.2469 35.88 73.5046 35.2819 73.8767 34.756C74.2489 34.2302 74.7273 33.7883 75.281 33.459C75.8347 33.1297 76.4513 32.9203 77.0911 32.8444V32.8444Z" fill="white"/>
<path d="M81.606 24.1326L86.7972 28.3916C86.1246 30.1793 85.9125 32.0474 88.8445 32.753C89.5757 33.7218 88.4789 35.4217 87.1775 36.0834C84.0993 35.3815 82.3262 34.5553 81.1307 32.9138C81.5073 31.627 82.1068 26.7757 81.606 24.1326Z" fill="#FF8B7B"/>
<path opacity="0.2" d="M83.7702 25.9094L86.7972 28.3881C86.6332 28.8014 86.5107 29.23 86.4317 29.6676C85.2581 29.7517 83.6277 28.5709 83.5545 27.496C83.5279 26.9584 83.601 26.4205 83.7702 25.9094V25.9094Z" fill="black"/>
<path d="M80.8602 21.23C81.3354 24.4873 81.4451 26.4176 83.2401 27.9457C85.9418 30.2452 89.8608 28.3734 90.3726 25.0211C90.8296 22.0123 89.9778 17.1903 86.662 16.1813C85.9264 15.9575 85.1459 15.9243 84.394 16.0849C83.642 16.2455 82.9432 16.5945 82.3632 17.0993C81.7832 17.604 81.3409 18.2479 81.078 18.9704C80.8151 19.693 80.7402 20.4705 80.8602 21.23Z" fill="#FF8B7B"/>
<path d="M80.8309 22.7325C81.1656 23.0952 81.598 23.3534 82.076 23.476C82.5541 23.5986 83.0574 23.5803 83.5253 23.4234C82.7429 22.6301 83.5033 19.7274 82.721 18.5466C84.2345 18.8463 90.1277 19.7018 90.6907 17.6582C91.3012 15.4647 88.8628 13.7136 87.4955 13.5491C87.8976 14.463 87.8611 15.1247 86.3622 14.8286C84.8633 14.5325 78.685 13.1067 79.3686 16.0021C77.3799 16.0021 77.2446 18.8975 78.6996 20.2831C79.4967 21.02 80.2113 21.8412 80.8309 22.7325V22.7325Z" fill="#263238"/>
<path d="M79.7342 15.8631C78.5424 15.567 78.9153 14.4703 79.1822 14.3569C78.0671 14.6275 77.6613 15.7242 79.0067 16.2287C80.352 16.7332 79.7342 15.8631 79.7342 15.8631Z" fill="#263238"/>
<path d="M79.9426 23.2295C80.0535 23.5864 80.234 23.9178 80.4737 24.2046C80.7134 24.4913 81.0076 24.7278 81.3391 24.9002C82.2348 25.3572 82.8855 24.6041 82.8015 23.6609C82.732 22.8091 82.1873 21.5479 81.2075 21.4674C80.992 21.4567 80.7772 21.5001 80.5829 21.5938C80.3885 21.6875 80.2207 21.8285 80.0949 22.0038C79.969 22.1791 79.8892 22.3831 79.8626 22.5972C79.836 22.8114 79.8635 23.0288 79.9426 23.2295V23.2295Z" fill="#FF8B7B"/>
<path d="M85.4336 21.347C85.4555 21.6139 85.6164 21.8186 85.7992 21.804C85.982 21.7894 86.099 21.5554 86.077 21.2922C86.0551 21.029 85.8942 20.8206 85.7114 20.8352C85.5287 20.8498 85.4117 21.0801 85.4336 21.347Z" fill="#263238"/>
<path d="M88.6215 21.2701C88.6434 21.537 88.8043 21.7417 88.9871 21.7235C89.1699 21.7052 89.2832 21.4785 89.2612 21.2116C89.2393 20.9448 89.0785 20.7437 88.8957 20.7583C88.7129 20.7729 88.5995 21.0033 88.6215 21.2701Z" fill="#263238"/>
<path d="M87.9744 21.6284C88.3591 22.4142 88.8512 23.1426 89.4368 23.7927C89.0017 24.2752 88.1828 24.1582 88.1828 24.1582L87.9744 21.6284Z" fill="#FF5652"/>
<path d="M84.9401 20.4989C84.915 20.5059 84.8884 20.5059 84.8633 20.4989C84.8438 20.4916 84.8259 20.4805 84.8108 20.4661C84.7957 20.4518 84.7837 20.4345 84.7755 20.4153C84.7673 20.3962 84.763 20.3756 84.7631 20.3547C84.7631 20.3339 84.7673 20.3133 84.7756 20.2941C84.8633 20.0594 85.0054 19.8489 85.1904 19.6798C85.3753 19.5107 85.5978 19.388 85.8394 19.3217C85.8806 19.3134 85.9234 19.3219 85.9584 19.3452C85.9934 19.3685 86.0176 19.4048 86.0259 19.446C86.0341 19.4872 86.0256 19.53 86.0023 19.5649C85.979 19.5999 85.9428 19.6242 85.9016 19.6324V19.6324C85.7103 19.6866 85.5346 19.7854 85.3891 19.9208C85.2435 20.0562 85.1322 20.2243 85.0644 20.4111C85.0528 20.4351 85.0353 20.4557 85.0136 20.471C84.9918 20.4864 84.9665 20.4959 84.9401 20.4989V20.4989Z" fill="#263238"/>
<path d="M90.4713 20.0747C90.4449 20.0749 90.419 20.0682 90.3959 20.0554C90.3729 20.0426 90.3535 20.0241 90.3397 20.0016C90.2424 19.8307 90.1058 19.6855 89.9411 19.5781C89.7764 19.4706 89.5884 19.404 89.3929 19.3838C89.3722 19.3833 89.3519 19.3788 89.333 19.3704C89.3141 19.3621 89.297 19.3501 89.2827 19.3352C89.2685 19.3202 89.2573 19.3026 89.2499 19.2834C89.2424 19.2641 89.2388 19.2436 89.2393 19.2229C89.2412 19.1809 89.2595 19.1413 89.2902 19.1126C89.321 19.0839 89.3618 19.0684 89.4038 19.0694C89.6515 19.092 89.8903 19.1734 90.1001 19.307C90.31 19.4405 90.4849 19.6223 90.6102 19.8371C90.631 19.8728 90.6373 19.915 90.6277 19.9552C90.6182 19.9953 90.5936 20.0303 90.5591 20.0528C90.5333 20.0702 90.5022 20.078 90.4713 20.0747V20.0747Z" fill="#263238"/>
<path d="M81.1307 32.9138C81.1307 32.9138 86.4573 41.0078 88.4826 46.7181C90.4786 40.017 90.709 34.654 88.8482 32.7529C88.2486 33.5097 85.8358 34.5333 81.1307 32.9138Z" fill="#E0E0E0"/>
<path d="M79.3138 38.8948L78.7983 40.3571L78.2865 41.8779C77.9465 42.8906 77.6358 43.9069 77.347 44.9049C77.2007 45.4058 77.0728 45.903 76.9558 46.3929C76.8388 46.8827 76.7255 47.369 76.645 47.8333C76.5646 48.2975 76.5025 48.7472 76.4622 49.1493C76.4414 49.4573 76.4414 49.7663 76.4622 50.0743L76.2722 49.5405C76.1186 49.2517 75.9614 49.1749 75.9541 49.1749C75.9468 49.1749 76.0053 49.248 76.1186 49.3285C76.4589 49.5292 76.8207 49.6911 77.1971 49.811C78.1693 50.1377 79.1622 50.3991 80.1692 50.5934C81.2404 50.8054 82.3445 50.959 83.4595 51.1418C84.5745 51.3246 85.7224 51.4525 86.8265 51.6097H86.8777C87.2632 51.6649 87.6168 51.8548 87.8757 52.1457C88.1346 52.4367 88.2822 52.8099 88.2923 53.1992C88.3024 53.5886 88.1743 53.9689 87.9307 54.2728C87.6872 54.5768 87.3439 54.7847 86.9617 54.8597C85.7705 55.0858 84.5687 55.2518 83.3608 55.3569C82.1544 55.4666 80.937 55.5214 79.705 55.5141C78.4059 55.5118 77.1094 55.398 75.8298 55.1741C75.0785 55.0339 74.3435 54.8171 73.6363 54.527C73.1652 54.3328 72.7205 54.0798 72.3129 53.7739C71.7122 53.3301 71.2239 52.7517 70.8871 52.085C70.825 51.9608 70.7748 51.8311 70.7373 51.6974L70.697 51.5476C70.4835 50.7517 70.3669 49.933 70.3497 49.1091C70.332 48.4221 70.3576 47.7347 70.4265 47.0509C70.5434 45.8018 70.7449 44.5621 71.0297 43.3403C71.2893 42.1485 71.6183 40.9969 71.9729 39.8599C72.1557 39.2933 72.3385 38.7303 72.5432 38.1709C72.748 37.6116 72.9527 37.0742 73.2049 36.471C73.5348 35.683 74.1583 35.0542 74.9435 34.7176C75.7287 34.381 76.614 34.363 77.4122 34.6673C78.2104 34.9717 78.8589 35.5746 79.2207 36.3486C79.5824 37.1225 79.6289 38.0068 79.3504 38.8144L79.3138 38.8948Z" fill="#E0E0E0"/>
<path d="M87.3456 52.0812L90.5773 52.4833L88.7933 56.6181C88.7933 56.6181 85.843 55.8869 85.631 54.2637C85.61 54.0843 85.6527 53.9031 85.7516 53.7519L86.5852 52.4395C86.6653 52.3142 86.7792 52.2141 86.9137 52.1508C87.0483 52.0874 87.198 52.0633 87.3456 52.0812V52.0812Z" fill="#FF8B7B"/>
<path d="M93.0012 55.5433L92.1311 56.8887C91.9624 57.1472 91.7074 57.3376 91.4116 57.426C91.1157 57.5143 90.7981 57.4949 90.5152 57.3712L88.7933 56.6181L90.5774 52.4834L92.5917 53.73C92.739 53.821 92.8667 53.9404 92.9672 54.0813C93.0678 54.2223 93.1392 54.3818 93.1773 54.5507C93.2155 54.7195 93.2195 54.8943 93.1893 55.0647C93.159 55.2352 93.0951 55.3979 93.0012 55.5433V55.5433Z" fill="#FF8B7B"/>
<path d="M81.3903 31.6562C80.7111 31.7641 80.0885 32.0992 79.6245 32.6068C81.0721 34.5386 83.1356 35.9185 85.4738 36.5185C85.3056 35.9591 85.8101 34.325 86.3658 33.7401C84.3222 33.4366 81.3903 31.6562 81.3903 31.6562Z" fill="#FAFAFA"/>
<path d="M87.0056 31.8574C87.6988 31.9834 88.3576 32.2537 88.9396 32.6507C88.9396 32.6507 90.9868 34.9356 88.574 36.2261C88.7385 35.6668 87.4772 34.1752 86.3476 33.7402C88.3875 33.4367 87.0056 31.8574 87.0056 31.8574Z" fill="#FAFAFA"/>
<path d="M86.5742 35.0416C84.9583 34.1751 82.9586 33.2356 83.5143 34.7527C84.07 36.2699 83.3352 36.7963 84.059 37.3118C84.7829 37.8273 86.2525 36.4125 86.7387 36.2151C87.225 36.0177 86.5742 35.0416 86.5742 35.0416Z" fill="#8A1114"/>
<path d="M87.7185 35.0307C88.9505 34.2008 90.4933 33.3015 90.2191 34.7821C89.9449 36.2627 90.6249 36.7782 90.0875 37.279C89.5501 37.7799 88.1682 36.3797 87.7295 36.1823C87.2908 35.9849 87.7185 35.0307 87.7185 35.0307Z" fill="#8A1114"/>
<path d="M86.3549 34.9247C86.7204 34.7054 87.6125 34.4275 88.0548 35.0234C88.4972 35.6193 88.3546 36.6173 87.7441 36.738C87.526 36.7821 87.3 36.7663 87.0901 36.6922C86.8803 36.6182 86.6944 36.4887 86.5523 36.3176C86.6879 36.0991 86.7424 35.8399 86.7063 35.5853C86.6702 35.3307 86.5458 35.0969 86.3549 34.9247V34.9247Z" fill="#8A1114"/>
<path d="M76.0565 132.714L71.622 132.838L71.388 130.327L76.539 130.634L76.0565 132.714Z" fill="black"/>
<path d="M96.5217 132.707L91.7326 132.838L91.2025 130.663L96.551 130.144L96.5217 132.707Z" fill="black"/>
<path d="M86.0844 51.2296C83.8449 50.5676 81.5359 50.1688 79.2041 50.0415C78.7069 50.0708 78.5168 61.3051 78.557 65.9004C78.557 66.5219 85.7078 66.3976 87.5357 66.1161C87.6381 64.8329 87.66 55.4667 88.1353 52.5384C88.1715 52.3093 88.13 52.0747 88.0174 51.8719C87.9047 51.6692 87.7274 51.51 87.5138 51.4197C87.0609 51.2371 86.5692 51.1718 86.0844 51.2296V51.2296Z" fill="white"/>
<path d="M123.516 33.2466H103.219V33.8242H123.516V33.2466Z" fill="#8A1114"/>
<path d="M123.092 33.8242H103.643L104.389 34.23H122.35L123.092 33.8242Z" fill="#8A1114"/>
<path opacity="0.2" d="M123.092 33.8242H103.643L104.389 34.23H122.35L123.092 33.8242Z" fill="black"/>
<path d="M114.205 25.0867C114.206 25.2524 114.157 25.4147 114.066 25.5528C113.974 25.691 113.844 25.7988 113.691 25.8628C113.538 25.9267 113.369 25.9438 113.207 25.9119C113.044 25.88 112.894 25.8006 112.777 25.6836C112.66 25.5667 112.579 25.4175 112.547 25.255C112.514 25.0925 112.531 24.924 112.594 24.7708C112.657 24.6177 112.764 24.4867 112.902 24.3945C113.04 24.3024 113.202 24.2532 113.368 24.2532C113.477 24.2527 113.586 24.2739 113.688 24.3156C113.789 24.3573 113.882 24.4186 113.959 24.496C114.037 24.5735 114.099 24.6655 114.141 24.7669C114.183 24.8683 114.205 24.9769 114.205 25.0867Z" fill="#8A1114"/>
<path d="M122.142 30.5668C121.578 28.8212 120.506 27.2836 119.063 26.1506L119.29 25.8618C120.791 27.0406 121.906 28.6407 122.493 30.4572L122.142 30.5668Z" fill="#8A1114"/>
<path d="M117.795 25.3097C117.385 25.0835 116.959 24.8891 116.519 24.7284L116.643 24.3848C117.101 24.5568 117.544 24.7633 117.97 25.0026L117.795 25.3097Z" fill="#8A1114"/>
<path d="M113.368 25.0869C111.166 25.0869 109.054 25.9616 107.497 27.5186C105.94 29.0756 105.065 31.1873 105.065 33.3893H121.67C121.67 31.1873 120.795 29.0756 119.238 27.5186C117.681 25.9616 115.57 25.0869 113.368 25.0869V25.0869Z" fill="#8A1114"/>
<path opacity="0.3" d="M106.21 32.647H108.356C108.43 32.6457 108.501 32.6188 108.558 32.5708C108.615 32.5228 108.653 32.4567 108.666 32.3837C109.098 30.1098 110.454 28.1284 112.611 26.4065C112.66 26.3672 112.695 26.313 112.71 26.2521C112.725 26.1913 112.72 26.1271 112.696 26.0692C112.672 26.0114 112.629 25.9631 112.575 25.9316C112.521 25.9001 112.458 25.8871 112.395 25.8947C110.764 26.11 109.247 26.8503 108.074 28.0038C106.901 29.1573 106.135 30.6614 105.892 32.2887C105.886 32.3337 105.89 32.3794 105.903 32.4228C105.917 32.4661 105.939 32.5061 105.969 32.5401C105.999 32.574 106.036 32.6011 106.078 32.6195C106.119 32.638 106.164 32.6473 106.21 32.647Z" fill="white"/>
<path d="M86.9544 25.1087C87.1255 25.1162 87.2968 25.1076 87.4662 25.0831C87.489 25.0787 87.5091 25.0654 87.5221 25.0463C87.5351 25.0271 87.54 25.0035 87.5357 24.9808C87.5297 24.9569 87.5153 24.9361 87.4952 24.922C87.475 24.9079 87.4505 24.9015 87.426 24.904C87.0442 24.9608 86.6544 24.9304 86.2859 24.8152C85.9175 24.6999 85.5798 24.5028 85.2983 24.2386C85.2901 24.2299 85.2802 24.2229 85.2692 24.2182C85.2582 24.2134 85.2464 24.2109 85.2344 24.2109C85.2224 24.2109 85.2105 24.2134 85.1995 24.2182C85.1885 24.2229 85.1786 24.2299 85.1704 24.2386C85.1545 24.2561 85.1456 24.2789 85.1456 24.3026C85.1456 24.3263 85.1545 24.3491 85.1704 24.3666C85.654 24.8243 86.2889 25.0884 86.9544 25.1087V25.1087Z" fill="#263238"/>
</svg>
